<?xml version="1.0" standalone="no"?>
<!DOCTYPE svg PUBLIC "-//W3C//DTD SVG 20010904//EN"
 "http://www.w3.org/TR/2001/REC-SVG-20010904/DTD/svg10.dtd">
<svg version="1.0" xmlns="http://www.w3.org/2000/svg"
 width="474.000000pt" height="474.000000pt" viewBox="0 0 474.000000 474.000000"
 preserveAspectRatio="xMidYMid meet">
<metadata>
Created by potrace 1.14, written by Peter Selinger 2001-2017
</metadata>
<g transform="translate(0.000000,474.000000) scale(0.100000,-0.100000)"
fill="#000000" stroke="none">
<path d="M2299 4398 c-103 -69 -191 -162 -228 -243 -18 -38 -46 -97 -62 -130
-81 -170 -74 -300 23 -411 25 -28 32 -47 36 -90 4 -46 7 -54 21 -49 106 41
456 41 562 0 13 -5 17 4 22 50 4 43 13 64 36 91 90 102 103 232 36 379 -13 27
-29 68 -36 90 -21 71 -57 132 -115 194 -55 60 -193 161 -219 161 -7 0 -41 -19
-76 -42z"/>
<path d="M1200 3490 c-312 -86 -425 -145 -568 -291 -207 -213 -373 -563 -389
-818 l-6 -95 34 24 c94 66 125 101 225 251 155 236 263 333 398 358 66 12 259
-11 356 -43 41 -13 76 -21 78 -18 1 4 13 25 27 47 13 22 40 73 60 113 25 51
62 100 124 165 l88 92 -38 55 c-51 73 -123 145 -164 164 -44 21 -142 19 -225
-4z"/>
<path d="M3315 3496 c-37 -17 -111 -92 -163 -166 l-39 -55 88 -92 c62 -65 99
-114 124 -165 20 -40 47 -91 60 -113 14 -22 26 -43 27 -47 2 -4 35 3 74 17 85
29 289 56 355 46 132 -20 245 -122 408 -366 92 -139 115 -167 176 -213 l70
-52 3 62 c8 155 -96 440 -238 658 -79 121 -237 278 -338 338 -74 43 -247 108
-383 142 -89 23 -181 25 -224 6z"/>
<path d="M2183 3451 c-28 -5 -66 -16 -84 -25 -17 -9 -46 -16 -64 -16 -60 0
-214 -65 -315 -133 -116 -78 -251 -224 -266 -287 -4 -14 -21 -47 -40 -75 -64
-96 -114 -301 -114 -464 1 -126 16 -305 35 -394 34 -163 115 -394 159 -452 14
-18 26 -42 26 -52 0 -28 100 -192 174 -287 62 -80 178 -196 196 -196 5 0 29
-18 55 -40 53 -46 146 -93 309 -154 l116 -44 113 42 c144 55 260 111 300 145
18 15 52 40 76 56 114 77 361 405 361 480 0 9 11 31 24 48 45 60 105 223 152
412 25 102 43 282 44 436 0 157 -52 377 -108 455 -16 22 -34 55 -40 74 -18 54
-111 169 -192 236 -107 91 -314 194 -387 194 -13 0 -52 10 -86 21 -52 18 -89
22 -227 25 -91 1 -188 -1 -217 -5z m310 -91 c51 -6 106 -19 129 -31 24 -12 50
-18 63 -15 44 11 193 -53 300 -129 104 -74 215 -203 215 -251 0 -19 11 -40 34
-64 63 -64 110 -248 108 -425 -2 -264 -21 -386 -96 -602 -47 -135 -60 -164
-90 -192 -15 -14 -26 -35 -26 -50 0 -86 -243 -406 -349 -461 -21 -10 -41 -26
-44 -33 -8 -22 -103 -72 -189 -101 -91 -31 -228 -35 -323 -11 -76 20 -203 83
-218 107 -7 11 -28 28 -47 38 -104 54 -332 349 -347 449 -3 20 -16 47 -28 61
-30 33 -49 71 -85 172 -63 176 -109 406 -92 456 6 19 5 36 -4 57 -44 101 23
455 102 535 22 24 34 45 34 64 0 59 143 211 269 286 93 55 209 100 242 93 16
-3 42 3 68 16 68 35 224 48 374 31z"/>
<path d="M2214 3311 c-28 -5 -60 -13 -71 -20 -19 -10 -89 -120 -192 -304 -22
-38 -31 -65 -27 -81 5 -22 208 -204 243 -218 23 -9 382 -9 405 0 35 14 238
196 244 218 4 16 -12 55 -62 141 -37 65 -81 143 -98 173 -46 81 -73 91 -249
96 -78 1 -165 -1 -193 -5z"/>
<path d="M1952 3240 c-79 -32 -164 -83 -227 -137 -57 -48 -135 -144 -135 -167
0 -17 6 -18 88 -12 135 10 171 17 192 35 25 21 181 292 174 303 -7 12 -11 11
-92 -22z"/>
<path d="M2696 3262 c-4 -8 140 -268 166 -299 16 -19 72 -31 186 -38 93 -7
102 -6 102 10 0 38 -102 148 -203 219 -37 26 -104 63 -148 82 -86 36 -95 39
-103 26z"/>
<path d="M1685 2868 c-130 -11 -153 -21 -176 -74 -35 -79 -59 -197 -66 -321
-5 -112 -5 -123 12 -129 27 -11 411 23 440 38 36 19 215 238 215 263 0 23
-198 200 -247 222 -32 14 -39 14 -178 1z"/>
<path d="M2877 2867 c-15 -6 -77 -54 -137 -106 -80 -68 -110 -101 -110 -117 0
-26 178 -242 216 -262 28 -14 412 -49 437 -39 36 14 15 256 -33 402 -32 96
-42 105 -130 115 -158 18 -215 20 -243 7z"/>
<path d="M2183 2618 c-23 -11 -201 -216 -222 -256 -10 -19 -10 -27 2 -45 30
-46 213 -240 239 -253 38 -20 298 -20 336 0 15 8 64 55 110 105 122 133 135
150 135 175 0 30 -203 271 -235 280 -39 10 -341 5 -365 -6z"/>
<path d="M1655 2304 c-88 -8 -171 -18 -184 -24 -22 -10 -23 -14 -17 -73 17
-173 126 -508 171 -529 32 -14 282 8 313 28 33 22 202 284 202 315 0 19 -29
57 -112 148 -61 67 -124 129 -139 137 -32 16 -21 16 -234 -2z"/>
<path d="M2858 2314 c-9 -3 -71 -64 -138 -136 -90 -98 -120 -137 -120 -157 0
-32 167 -292 202 -315 36 -23 280 -44 313 -26 46 25 154 354 171 523 6 58 4
66 -12 75 -11 6 -82 15 -159 21 -77 6 -162 13 -190 15 -27 3 -58 2 -67 0z"/>
<path d="M2205 1989 c-23 -12 -205 -288 -205 -312 0 -17 151 -155 205 -188 25
-16 51 -19 163 -19 80 0 142 5 155 11 58 30 217 176 217 199 0 20 -164 268
-196 298 -24 21 -33 22 -172 21 -81 0 -156 -5 -167 -10z"/>
<path d="M1788 1626 c-64 -6 -120 -14 -123 -18 -15 -14 7 -60 76 -164 76 -112
204 -254 229 -253 8 0 51 43 95 96 104 125 107 130 100 152 -5 16 -132 131
-195 177 -26 19 -62 21 -182 10z"/>
<path d="M2803 1633 c-27 -5 -221 -170 -229 -195 -3 -12 3 -31 19 -51 49 -65
162 -191 174 -194 42 -14 313 333 313 400 0 21 -16 25 -130 32 -52 4 -102 8
-110 9 -8 2 -25 1 -37 -1z"/>
<path d="M2247 1413 c-19 -5 -193 -204 -210 -240 -14 -31 0 -45 84 -87 138
-69 268 -81 409 -37 79 25 173 80 178 104 4 19 -163 225 -204 252 -18 11 -49
15 -131 14 -59 -1 -116 -3 -126 -6z"/>
<path d="M1505 1327 c-87 -47 -170 -130 -270 -269 -118 -166 -155 -234 -162
-302 -7 -68 5 -90 81 -143 58 -40 100 -99 136 -193 30 -76 59 -120 79 -120 36
0 59 38 151 250 81 188 196 389 268 472 l32 36 -66 68 c-36 38 -93 106 -126
152 -33 45 -61 82 -62 82 0 0 -28 -15 -61 -33z"/>
<path d="M3117 1283 c-30 -43 -87 -111 -126 -151 l-71 -73 49 -62 c92 -117
169 -260 295 -547 48 -108 78 -150 108 -150 22 0 38 25 78 117 46 109 79 159
128 189 24 15 55 41 69 58 22 27 25 37 20 86 -6 73 -34 125 -156 297 -107 151
-181 225 -280 281 l-59 33 -55 -78z"/>
</g>
</svg>
